<svg id="visual" viewBox="0 0 900 600" width="900" height="600" xmlns="http://www.w3.org/2000/svg" xmlns:xlink="http://www.w3.org/1999/xlink" version="1.1"><path d="M0 79L13.7 80C27.3 81 54.7 83 82 78C109.3 73 136.7 61 163.8 65C191 69 218 89 245.2 97C272.3 105 299.7 101 327 102C354.3 103 381.7 109 409 101C436.3 93 463.7 71 491 71C518.3 71 545.7 93 573 98C600.3 103 627.7 91 654.8 84C682 77 709 75 736.2 71C763.3 67 790.7 61 818 59C845.3 57 872.7 59 886.3 60L900 61L900 0L886.3 0C872.7 0 845.3 0 818 0C790.7 0 763.3 0 736.2 0C709 0 682 0 654.8 0C627.7 0 600.3 0 573 0C545.7 0 518.3 0 491 0C463.7 0 436.3 0 409 0C381.7 0 354.3 0 327 0C299.7 0 272.3 0 245.2 0C218 0 191 0 163.8 0C136.7 0 109.3 0 82 0C54.7 0 27.3 0 13.7 0L0 0Z" fill="#6198ff"></path><path d="M0 163L13.7 165C27.3 167 54.7 171 82 185C109.3 199 136.7 223 163.8 239C191 255 218 263 245.2 256C272.3 249 299.7 227 327 221C354.3 215 381.7 225 409 221C436.3 217 463.7 199 491 211C518.3 223 545.7 265 573 276C600.3 287 627.7 267 654.8 247C682 227 709 207 736.2 216C763.3 225 790.7 263 818 263C845.3 263 872.7 225 886.3 206L900 187L900 59L886.3 58C872.7 57 845.3 55 818 57C790.7 59 763.3 65 736.2 69C709 73 682 75 654.8 82C627.7 89 600.3 101 573 96C545.7 91 518.3 69 491 69C463.7 69 436.3 91 409 99C381.7 107 354.3 101 327 100C299.7 99 272.3 103 245.2 95C218 87 191 67 163.8 63C136.7 59 109.3 71 82 76C54.7 81 27.3 79 13.7 78L0 77Z" fill="#3c80ff"></path><path d="M0 367L13.7 371C27.3 375 54.7 383 82 387C109.3 391 136.7 391 163.8 399C191 407 218 423 245.2 428C272.3 433 299.7 427 327 424C354.3 421 381.7 421 409 428C436.3 435 463.7 449 491 443C518.3 437 545.7 411 573 412C600.3 413 627.7 441 654.8 443C682 445 709 421 736.2 417C763.3 413 790.7 429 818 436C845.3 443 872.7 441 886.3 440L900 439L900 185L886.3 204C872.7 223 845.3 261 818 261C790.7 261 763.3 223 736.2 214C709 205 682 225 654.8 245C627.7 265 600.3 285 573 274C545.7 263 518.3 221 491 209C463.7 197 436.3 215 409 219C381.7 223 354.3 213 327 219C299.7 225 272.3 247 245.2 254C218 261 191 253 163.8 237C136.7 221 109.3 197 82 183C54.7 169 27.3 165 13.7 163L0 161Z" fill="#0066ff"></path><path d="M0 529L13.7 524C27.3 519 54.7 509 82 514C109.3 519 136.7 539 163.8 540C191 541 218 523 245.2 513C272.3 503 299.7 501 327 502C354.3 503 381.7 507 409 511C436.3 515 463.7 519 491 522C518.3 525 545.7 527 573 529C600.3 531 627.7 533 654.8 531C682 529 709 523 736.2 528C763.3 533 790.7 549 818 557C845.3 565 872.7 565 886.3 565L900 565L900 437L886.3 438C872.7 439 845.3 441 818 434C790.7 427 763.3 411 736.2 415C709 419 682 443 654.8 441C627.7 439 600.3 411 573 410C545.7 409 518.3 435 491 441C463.7 447 436.3 433 409 426C381.7 419 354.3 419 327 422C299.7 425 272.3 431 245.2 426C218 421 191 405 163.8 397C136.7 389 109.3 389 82 385C54.7 381 27.3 373 13.7 369L0 365Z" fill="#0059dd"></path><path d="M0 601L13.7 601C27.3 601 54.7 601 82 601C109.3 601 136.7 601 163.8 601C191 601 218 601 245.2 601C272.3 601 299.7 601 327 601C354.3 601 381.7 601 409 601C436.3 601 463.7 601 491 601C518.3 601 545.7 601 573 601C600.3 601 627.7 601 654.8 601C682 601 709 601 736.2 601C763.3 601 790.7 601 818 601C845.3 601 872.7 601 886.3 601L900 601L900 563L886.3 563C872.7 563 845.3 563 818 555C790.7 547 763.3 531 736.2 526C709 521 682 527 654.8 529C627.7 531 600.3 529 573 527C545.7 525 518.3 523 491 520C463.7 517 436.3 513 409 509C381.7 505 354.3 501 327 500C299.7 499 272.3 501 245.2 511C218 521 191 539 163.8 538C136.7 537 109.3 517 82 512C54.7 507 27.3 517 13.7 522L0 527Z" fill="#004cbb"></path></svg>